<?xml version="1.0" encoding="utf-8"?>
<!-- Generator: Adobe Illustrator 23.0.6, SVG Export Plug-In . SVG Version: 6.00 Build 0)  -->
<svg version="1.1" id="Layer_1" xmlns="http://www.w3.org/2000/svg" xmlns:xlink="http://www.w3.org/1999/xlink" x="0px" y="0px"
	 viewBox="0 0 118.8 119.5" style="enable-background:new 0 0 118.8 119.5;" xml:space="preserve">
<style type="text/css">
	.st0{fill:none;stroke:#F29100;stroke-width:3;stroke-miterlimit:10;}
</style>
<g>
	<path class="st0" d="M115.6,25.2L93.5,3.1c-1.7-1.7-3.6-1.6-5.2-1.6v28.9h28.9C117.2,28.7,117.3,27,115.6,25.2z M81.1,32.2V1.5
		H35.9c-3,0-5.4,2.4-5.4,5.4l0,0v24.6c4.1-1.1,4.4-1.1,6-1.1c3.7,0,7.2,1.5,9.8,4.1c2,2.2,1,1.6,4.1,2.4c4.8,1.3,8.5,5.1,9.8,9.9
		c0.7,3,0.1,2,2.4,4.3c3.5,3.5,4.8,8.6,3.6,13.4c-0.8,3-0.8,1.8,0,5c1.3,4.8-0.1,9.9-3.5,13.4c-2.2,2.1-1.6,1.1-2.4,4.3
		c-1.1,4.2-4.1,7.6-8,9.3v20.6h59.6c3,0,5.4-2.4,5.4-5.4l0,0v-74H86.5C83.5,37.6,81.1,35.2,81.1,32.2z"/>
	<path class="st0" d="M59.2,62.7c0.6-2.3,0-4.8-1.7-6.5c-3.4-3.4-3-2.8-4.3-7.5c-0.6-2.3-2.4-4.1-4.7-4.7c-4.6-1.2-4-0.9-7.4-4.3
		c-1.6-1.7-4.1-2.4-6.4-1.8c-4.6,1.2-3.9,1.2-8.5,0c-2.3-0.6-4.7,0-6.4,1.7c-3.4,3.4-2.8,3.1-7.4,4.3c-2.3,0.6-4.1,2.5-4.7,4.8
		c-1.2,4.7-0.9,4.1-4.3,7.5c-1.7,1.7-2.3,4.2-1.7,6.5c1.2,4.7,1.2,4,0,8.7c-0.6,2.3,0,4.8,1.7,6.5c3.4,3.4,3,2.8,4.3,7.5
		c0.6,2.3,2.4,4.1,4.7,4.8c3.2,0.9,2.6,0.7,3.6,1.1v25.8l14.4-7.2l14.4,7.2V91.3c1-0.5,0.3-0.2,3.6-1.1c2.3-0.6,4.1-2.4,4.7-4.8
		c1.2-4.7,0.9-4.1,4.3-7.5c1.7-1.7,2.3-4.2,1.7-6.5C58,66.7,57.9,67.4,59.2,62.7L59.2,62.7z M30.5,81c-8,0-14.4-6.5-14.4-14.4
		s6.5-14.4,14.4-14.4s14.4,6.5,14.4,14.4S38.5,81,30.5,81z"/>
</g>
</svg>
