<?xml version="1.0" encoding="utf-8"?>
<!-- Generator: Adobe Illustrator 23.0.6, SVG Export Plug-In . SVG Version: 6.00 Build 0)  -->
<svg version="1.1" id="Layer_1" xmlns="http://www.w3.org/2000/svg" xmlns:xlink="http://www.w3.org/1999/xlink" x="0px" y="0px"
	 viewBox="0 0 121 121" style="enable-background:new 0 0 121 121;" xml:space="preserve">
<style type="text/css">
	.st0{fill:none;stroke:#F29100;stroke-width:3;}
</style>
<path class="st0" d="M74.5,45.5v1h1h20.6c3.3,0,4.9,4,2.6,6.3l0,0L63,88.5l0,0c-1.4,1.4-3.6,1.4-5,0l0,0L22.3,52.8l0,0
	c-2.3-2.3-0.7-6.3,2.6-6.3h20.6h1v-1V6.1c0-2.5,2.1-4.6,4.6-4.6l0,0h18.8c2.5,0,4.6,2.1,4.6,4.6l0,0C74.5,6.1,74.5,45.5,74.5,45.5z"
	/>
<path class="st0" d="M51.3,95.2L51.3,95.2c5.1,5.1,13.3,5.1,18.4,0L80.9,84h34l0,0c2.5,0,4.6,2.1,4.6,4.6v26.2l0,0
	c0,2.5-2.1,4.6-4.6,4.6H6.1l0,0c-2.5,0-4.6-2.1-4.6-4.6V88.6l0,0c0-2.5,2.1-4.6,4.6-4.6h34L51.3,95.2L51.3,95.2L51.3,95.2z
	 M82,101.8c0,2.6,2.1,4.8,4.8,4.8s4.8-2.1,4.8-4.8c0-2.6-2.1-4.8-4.8-4.8S82,99.1,82,101.8z M97,101.8c0,2.6,2.1,4.8,4.8,4.8
	c2.6,0,4.8-2.1,4.8-4.8c0-2.6-2.1-4.8-4.8-4.8S97,99.1,97,101.8z"/>
</svg>
