<?xml version="1.0" encoding="utf-8"?>
<!-- Generator: Adobe Illustrator 23.0.6, SVG Export Plug-In . SVG Version: 6.00 Build 0)  -->
<svg version="1.1" id="Layer_1" xmlns="http://www.w3.org/2000/svg" xmlns:xlink="http://www.w3.org/1999/xlink" x="0px" y="0px"
	 viewBox="0 0 121 121" style="enable-background:new 0 0 121 121;" xml:space="preserve">
<style type="text/css">
	.st0{fill:none;stroke:#F29100;stroke-width:3;}
</style>
<g>
	<path class="st0" d="M82.7,60.5L82.7,60.5c0,4.8-0.3,9.7-0.7,14.5H39c-1-9.6-1-19.3,0-29H82C82.5,50.8,82.7,55.7,82.7,60.5z
		 M80.4,35.8L80.4,35.8L80.4,35.8c0,0.2,0.1,0.3,0.1,0.5H40.5c0-0.1,0.1-0.3,0.1-0.4l0,0l0,0c1.4-7.4,3.5-14,6-19.6l0,0
		c2.3-5.1,5.1-9.2,7.8-11.7l0,0c2.2-2.1,4.3-3,6.1-3c1.8,0,3.9,0.9,6.1,3l0,0c2.7,2.5,5.5,6.6,7.8,11.7C77,21.8,79,28.4,80.4,35.8z
		 M40.6,85.2L40.6,85.2L40.6,85.2c0-0.2-0.1-0.3-0.1-0.5h40.1c0,0.1-0.1,0.3-0.1,0.4l0,0l0,0c-1.4,7.4-3.4,14-6,19.6l0,0
		c-2.3,5.1-5.1,9.2-7.8,11.7l0,0c-2.2,2.1-4.3,3-6.1,3c-1.8,0-3.9-0.9-6.1-3l0,0c-2.7-2.5-5.5-6.6-7.8-11.7
		C44,99.2,42,92.6,40.6,85.2z M28.5,60.5c0,4.8,0.2,9.7,0.7,14.5H3.3c-2.4-9.5-2.4-19.5,0-29h25.9C28.8,50.8,28.5,55.7,28.5,60.5z
		 M91.8,75c0.5-4.8,0.7-9.6,0.7-14.5c0-4.8-0.3-9.7-0.7-14.5h25.9c2.4,9.5,2.4,19.5,0,29H91.8z M79.3,4.6
		c15.6,5.3,28.3,16.7,35,31.7H90.5C88.3,23.5,84.3,12.5,79.3,4.6z M90.5,84.7h23.9c-6.8,15-19.5,26.5-35,31.7
		C84.3,108.5,88.3,97.5,90.5,84.7z M6.7,36.3c6.8-15,19.5-26.5,35-31.7c-5,7.9-9,18.9-11.2,31.7H6.7z M41.7,116.4
		c-15.6-5.3-28.3-16.7-35-31.7h23.9C32.8,97.5,36.7,108.5,41.7,116.4z"/>
	<circle class="st0" cx="60.5" cy="60.5" r="59"/>
</g>
</svg>
